<svg xmlns="http://www.w3.org/2000/svg" viewBox="0 0 465.09 188.33"><defs><style>.cls-1{isolation:isolate;}.cls-2{fill:#00ede4;}</style></defs><title>me</title><g id="レイヤー_2" data-name="レイヤー 2"><g id="レイヤー_2-2" data-name="レイヤー 2"><g id="me" class="cls-1"><g class="cls-1"><path class="cls-2" d="M263.13,185.59H225.59V78.15c0-14.68-3-26-9-33.77S202.11,32.86,191,32.86c-14.25,0-27.78,7.28-40.21,21.64V185.59H113.09v-101c0-19.62-2.64-33.46-7.84-41.13S91,32.08,78.15,32.08a41.07,41.07,0,0,0-19.93,5c-6,3.29-13,9.17-20.67,17.49V185.59H0V3.91H37.55V26.15C55.18,9.05,72.71.39,89.67.39c22.64,0,40.49,10.67,53.09,31.72C161.61,10.8,181.6,0,202.17,0,219.84,0,234.58,6.55,246,19.48s17.14,32.76,17.14,59.06Zm-35.54-2h33.54v-105c0-25.79-5.6-45.22-16.64-57.74S219.24,2,202.17,2c-20.3,0-40.09,10.92-58.81,32.47l-.92,1.06-.7-1.22C129.48,13.13,112,2.39,89.67,2.39c-17,0-34.6,9-52.42,26.86L35.55,31v-25H2V183.59H35.55V53.73l.26-.28c8-8.63,15.19-14.74,21.45-18.17a43,43,0,0,1,20.89-5.2c13.57,0,23.24,4.12,28.76,12.25s8.18,22.23,8.18,42.26v99h33.74V53.75l.24-.28c12.9-15,27-22.61,42-22.61,11.73,0,20.86,4.14,27.16,12.3s9.39,19.86,9.39,35Z"/><path class="cls-2" d="M390.65,188.33c-19.9,0-36.26-4.2-48.61-12.48a91,91,0,0,1-29.72-33.46c-7.4-13.95-11.15-30.31-11.15-48.62,0-27.47,7.91-50.14,23.5-67.37s36.18-26,61.1-26c24,0,43.46,8.53,57.79,25.35s21.53,39.54,21.53,67.64v5.5H338.78c1.07,16.35,6.76,29.57,16.92,39.29,10.36,9.92,24,15,40.42,15,23.11,0,44.72-7.29,64.25-21.67l1.59-1.18v37.28l-.44.3a120.24,120.24,0,0,1-32.8,15.75C417.94,186.74,405.13,188.33,390.65,188.33ZM385.77,2.39c-24.33,0-44.39,8.53-59.61,25.36s-23,39.06-23,66c0,18,3.68,34,10.92,47.68a88.86,88.86,0,0,0,29.07,32.74c12,8.06,28,12.14,47.49,12.14,14.29,0,26.91-1.57,37.51-4.65a117.58,117.58,0,0,0,31.8-15.2V134.21c-19.46,13.88-40.93,20.91-63.84,20.91-17,0-31.05-5.21-41.81-15.51s-16.67-24.31-17.59-41.68l-.06-1.05H463.09v-3.5c0-27.61-7.09-49.93-21-66.34S409.17,2.39,385.77,2.39ZM430,77.59H337.31l.2-1.18c2.5-14.33,8-25.56,16.22-33.36s19.07-11.8,32-11.8,23.46,4,31.18,11.82,12.05,19.08,13,33.45Zm-90.3-2h88.16c-1-13.37-5.18-23.83-12.34-31.12C408.2,37,398.19,33.25,385.77,33.25S363,37,355.1,44.5C347.39,51.79,342.21,62.24,339.7,75.59Z"/></g></g></g></g></svg>