<svg xmlns="http://www.w3.org/2000/svg" viewBox="0 0 756.78 260.01"><defs><style>.cls-1{isolation:isolate;}.cls-2{fill:#00ede4;}</style></defs><title>me (3)</title><g id="レイヤー_2" data-name="レイヤー 2"><g id="レイヤー_2-2" data-name="レイヤー 2"><g id="me" class="cls-1"><g class="cls-1"><path class="cls-2" d="M263.13,257.27H225.59V149.83c0-14.68-3-26-9-33.77s-14.5-11.52-25.57-11.52c-14.25,0-27.78,7.28-40.21,21.64V257.27H113.09v-101c0-19.62-2.64-33.46-7.84-41.14S91,103.76,78.15,103.76a41,41,0,0,0-19.93,4.95c-6,3.29-13,9.17-20.67,17.49V257.27H0V75.59H37.55V97.83c17.63-17.1,35.16-25.76,52.12-25.76,22.64,0,40.49,10.67,53.09,31.72,18.85-21.31,38.84-32.11,59.41-32.11,17.67,0,32.41,6.55,43.82,19.48s17.14,32.76,17.14,59.06Zm-35.54-2h33.54v-105c0-25.8-5.6-45.22-16.64-57.74s-25.25-18.8-42.32-18.8c-20.3,0-40.09,10.92-58.81,32.47l-.92,1.06-.7-1.22C129.48,84.81,112,74.07,89.67,74.07c-17,0-34.6,9-52.42,26.86l-1.7,1.7v-25H2V255.27H35.55V125.41l.26-.28c8-8.63,15.19-14.74,21.45-18.17a43,43,0,0,1,20.89-5.2c13.57,0,23.24,4.12,28.76,12.25s8.18,22.23,8.18,42.26v99h33.74V125.43l.24-.28c12.9-15,27-22.61,42-22.61,11.73,0,20.86,4.14,27.16,12.3s9.39,19.86,9.39,35Z"/><path class="cls-2" d="M352.29,257.27H314.74V75.59h37.55Zm-35.55-2h33.55V77.59H316.74ZM333.32,44a20.77,20.77,0,0,1-15.17-6.64,21.45,21.45,0,0,1-6.53-15.45,21.22,21.22,0,0,1,6.53-15.25A20.78,20.78,0,0,1,333.32,0a21.87,21.87,0,0,1,15.73,6.34,20.92,20.92,0,0,1,6.56,15.56,21.33,21.33,0,0,1-6.54,15.55A21.58,21.58,0,0,1,333.32,44Zm0-42a18.84,18.84,0,0,0-13.74,6.05,19.29,19.29,0,0,0,0,27.89A18.79,18.79,0,0,0,333.32,42a19.61,19.61,0,0,0,14.33-6,19.39,19.39,0,0,0,6-14.14,19,19,0,0,0-5.95-14.13A20,20,0,0,0,333.32,2Z"/><path class="cls-2" d="M558.05,257.27H520.5V153.93c0-18.06-2.76-31.1-8.21-38.78S497.72,103.76,485,103.76c-16.29,0-30.34,8.24-41.78,24.51v129H404.88V75.59H443.2V96.88c15.6-16.46,33.46-24.81,53.1-24.81a60.86,60.86,0,0,1,31.77,8.83,58,58,0,0,1,22.35,24.24c5.06,10.19,7.63,26.48,7.63,48.4Zm-35.55-2h33.55V153.54c0-21.61-2.5-37.6-7.42-47.51A56,56,0,0,0,527,82.62a58.91,58.91,0,0,0-30.74-8.55c-19.79,0-37.74,8.76-53.35,26L441.2,102V77.59H406.88V255.27H441.2V127.64l.18-.26c11.87-17,26.53-25.62,43.6-25.62,13.43,0,23.16,4.12,28.94,12.24s8.58,21.45,8.58,39.93Z"/><path class="cls-2" d="M682.34,260c-19.9,0-36.25-4.2-48.6-12.48A91,91,0,0,1,604,214.07c-7.4-13.95-11.15-30.31-11.15-48.62,0-27.47,7.9-50.14,23.5-67.37s36.17-26,61.09-26c24,0,43.47,8.53,57.79,25.35s21.53,39.54,21.53,67.64v5.49H630.47c1.07,16.36,6.76,29.58,16.92,39.3,10.37,9.92,24,15,40.42,15,23.11,0,44.73-7.29,64.25-21.68l1.6-1.17v37.28l-.45.3a120.19,120.19,0,0,1-32.79,15.75C709.63,258.42,696.82,260,682.34,260ZM677.46,74.07c-24.33,0-44.38,8.53-59.61,25.35s-23,39.07-23,66c0,18,3.67,34,10.92,47.68a88.92,88.92,0,0,0,29.06,32.74c12,8,28,12.14,47.49,12.14,14.29,0,26.92-1.57,37.52-4.65a117.72,117.72,0,0,0,31.8-15.2V205.89c-19.46,13.88-40.93,20.91-63.85,20.91-17,0-31-5.21-41.8-15.51S629.33,187,628.42,169.61l-.06-1.06H754.78v-3.49c0-27.61-7.08-49.93-21-66.34S700.87,74.07,677.46,74.07Zm44.23,75.2H629l.2-1.18c2.5-14.34,7.95-25.56,16.22-33.36s19.07-11.8,32-11.8,23.47,4,31.18,11.82,12.06,19.08,13,33.45Zm-90.3-2h88.16c-1-13.37-5.18-23.83-12.33-31.12-7.33-7.44-17.34-11.22-29.76-11.22s-22.75,3.78-30.66,11.25C639.08,123.47,633.9,133.92,631.39,147.27Z"/></g></g></g></g></svg>