<svg xmlns="http://www.w3.org/2000/svg" viewBox="0 0 319.67 188.33"><defs><style>.cls-1{isolation:isolate;}.cls-2{fill:#00ede4;}</style></defs><title>me (2)</title><g id="レイヤー_2" data-name="レイヤー 2"><g id="レイヤー_2-2" data-name="レイヤー 2"><g id="me" class="cls-1"><g class="cls-1"><path class="cls-2" d="M61.35,188.33a61.73,61.73,0,0,1-31.86-8.64A56.38,56.38,0,0,1,7.43,156.23C2.5,146.44,0,130,0,107.45V3.52H37.55v103.4c0,18.56,2.66,31.65,7.91,38.92s14.47,10.8,27.61,10.8c16.42,0,30.6-8.12,42.16-24.13V3.52h37.55V185.2H115.23V163.68a83.63,83.63,0,0,1-24.45,17.66A68.53,68.53,0,0,1,61.35,188.33ZM2,5.52V107.45c0,22.26,2.43,38.37,7.22,47.89A54.38,54.38,0,0,0,30.51,178a59.7,59.7,0,0,0,30.84,8.36,66.78,66.78,0,0,0,28.58-6.79,82.59,82.59,0,0,0,25.57-19.06l1.73-1.9V183.2h33.55V5.52H117.23V133.16l-.18.26c-12,16.73-26.79,25.22-44,25.22-13.82,0-23.65-3.91-29.23-11.63s-8.29-21.1-8.29-40.09V5.52Z"/><path class="cls-2" d="M257,188.33a110,110,0,0,1-28.78-3.45c-8.35-2.29-19-6.55-31.61-12.67l-.57-.27V131.11l1.58,1.1a161.26,161.26,0,0,0,30.57,17c10.3,4.29,19.08,6.46,26.08,6.46a32.33,32.33,0,0,0,18.58-5.29c5.09-3.48,7.57-7.49,7.57-12.26a16.73,16.73,0,0,0-4.89-12.28c-3.36-3.37-10.82-8.34-22.15-14.78-22.92-12.76-38.16-23.85-45.31-33s-10.86-19.34-10.86-30.2c0-14.06,5.55-25.69,16.49-34.57S238.7,0,255.78,0c17.66,0,36,5,54.57,15l.53.29V52.77l-1.51-.91c-20.84-12.61-38.08-19-51.25-19-6.66,0-12.08,1.42-16.12,4.22s-5.92,6.3-5.92,10.81c0,3.88,1.83,7.65,5.45,11.22s10.47,8.24,20,13.51l12.71,7.23c30.15,17,45.44,36.25,45.44,57.1,0,15-5.94,27.41-17.65,37S275.21,188.33,257,188.33Zm-59-17.64c12.27,5.91,22.6,10,30.71,12.26A108.16,108.16,0,0,0,257,186.33c17.78,0,32.52-4.69,43.8-13.93s16.92-21.12,16.92-35.45c0-20.08-14.95-38.71-44.43-55.36l-12.7-7.23c-9.67-5.35-16.54-10-20.41-13.83s-6-8.2-6-12.64c0-5.14,2.28-9.34,6.78-12.45s10.19-4.58,17.26-4.58c13.21,0,30.28,6.18,50.76,18.37V16.44C290.8,6.86,272.94,2,255.78,2c-16.61,0-30.36,4.33-40.87,12.86s-15.75,19.59-15.75,33c0,10.4,3.51,20.14,10.44,29s22,19.82,44.71,32.46c11.66,6.62,19,11.56,22.59,15.1a18.68,18.68,0,0,1,5.47,13.7c0,5.41-2.84,10.09-8.45,13.91s-12.11,5.64-19.7,5.64c-7.27,0-16.3-2.22-26.85-6.62A162.64,162.64,0,0,1,198,134.94Z"/></g></g></g></g></svg>