<svg xmlns="http://www.w3.org/2000/svg" viewBox="0 0 181.77 73.76"><defs><style>.cls-1{fill:none;stroke:#5af0eb;stroke-miterlimit:10;stroke-width:1.5px;}</style></defs><title>アセット 2</title><g id="レイヤー_2" data-name="レイヤー 2"><g id="レイヤー_1-2" data-name="レイヤー 1"><path class="cls-1" d="M.75,72h14V20.7S25,5.69,40,13.77c0,0,5.61,1.32,5.61,23.59V72H59.82V19.88s9.4-11.22,21.11-7.26S89.68,37.2,89.68,37.2L90,72H104.2V28.78S104-1.31,80.11,1.06c0,0-10.85-3-22.93,11.39A22.69,22.69,0,0,0,35.56.8c-15.51.93-18.15,8.19-20.79,9v-9H.75Z"/><path class="cls-1" d="M134.23,29.28h35.63s-1-16.83-16.66-17.16S134.23,29.28,134.23,29.28Z"/><path class="cls-1" d="M134.23,37.53s1.32,35.64,43.06,17L181,51.39V66.73S177,72.67,155.35,73s-35.64-14.52-35.81-37.45S135.22.45,149.24.76,172.7.07,181,20.7V37.86Z"/></g></g></svg>