<svg xmlns="http://www.w3.org/2000/svg" viewBox="0 0 1570.59 952.38"><defs><style>.cls-1{fill:#fff;}</style></defs><title>アセット 1</title><g id="レイヤー_2" data-name="レイヤー 2"><g id="レイヤー_1-2" data-name="レイヤー 1"><path class="cls-1" d="M43.62,952.37c-32.24.55-40.51-18.69-42.27-24.61-6.41-21.61,9.49-55.07,59.53-77.46C98,833.7,142.63,820.53,197.13,810a4,4,0,0,0,2.36-1.39c70.35-97.3,141.15-253.33,163.64-327.34a3.84,3.84,0,0,0-3.62-5.16c-12.34-.05-20.94-2.87-25.41-8.36-2.05-2.49-6.26-9.37-1.43-19.67a9.44,9.44,0,0,1,8.46-5.47,9,9,0,0,1,4.13.89,9.55,9.55,0,0,1,5.46,9.29,3.91,3.91,0,0,0,3.55,4.2,50.94,50.94,0,0,0,5.56.17,87.48,87.48,0,0,0,9.18-.63,4,4,0,0,0,3.29-2.68,1213.86,1213.86,0,0,0,32.47-121.1,3.73,3.73,0,0,0-1.1-3.57c-.71-.77-2.24-1.62-5.69-1.15-4.44.61-10.69-4-11.79-8.31-1.24-5,4-8.64,9-9.91,3.68-.91,7.77-1.85,12.11-2.72a3.76,3.76,0,0,0,3.12-3.12,449.87,449.87,0,0,0,5.72-48.43c.23-4.6,5.36-10.51,12.27-7.84,6.3,2.44,12.13,8.71,11.45,13.9s-2.4,10.14-3.32,14.79c-1.45,7.51-4,13.94-5.47,22.25a3,3,0,0,0,.56,3,4.09,4.09,0,0,0,3,1.26c.09,0,.25,0,.34,0,9.44-1,18.67-1.65,27.45-1.83,24.59-.43,57.6,2.65,75.47,19.86,8.16,7.88,16.89,22.25,11.84,46.1C539,418,450.67,457.53,397.49,470.56c-3.22.77-6.3,1.43-9.29,2a3.89,3.89,0,0,0-2.91,2.61C362.83,547.15,317.12,659.93,232.4,797a4.07,4.07,0,0,0-.18,4.37,3.88,3.88,0,0,0,3.37,1.87,2.07,2.07,0,0,0,.52,0c45.4-7.14,99.89-15,159-19.22,24.08-1.72,50.19-2.61,80.94-3.17,54.15-.94,109.22,2.13,170.85,3.07,63.51,1,129.21,2,192.05.92,49-.85,91.13-2.94,128.75-6.32,149.69-13.45,263.55-40.16,359.8-81.19,104.55-44.6,196.7-127.23,218.15-231.84,26-127-41.69-228.56-99.91-283.65-66.14-62.59-173.83-109.35-285.1-134.39-96.92-21.81-197-30.64-286.43-27.77C709.4,25,556.92,61.06,410,137.75,297.15,196.69,203.54,285.28,141.4,389.08c-38.16,63.71-58.35,123.71-59.84,174.29-.13,5,.73,10.34,2.12,10.69,2.59.66,5.79-1.9,7.37-2.16,2.85-.5,5.86,2.2,7.33,4.3s1.49,6.14,1,8.6c-3.19,17.53-7.32,25.69-13.54,38.76-1.56,3.23-5,7.07-9,6.18a13.44,13.44,0,0,1-9.15-7.54c-43.41-109,77.52-367.56,333.48-501.26C550.87,42.84,702.74,5.56,874.27.4,965.14-2.32,1068.61,9,1167,31.24c117.74,26.62,216,69.67,290.18,137.7,89.73,82.24,127.79,197.07,108.62,296.76-24.92,129.22-142.26,290.89-596.26,331.69-38.25,3.38-80.79,5.5-130.24,6.39-63.31,1.13-129.07.06-192.63-.95-61.83-1-119.8-1.87-173.36-.93-30.41.56-56.73,1.61-80.46,3.33-68.94,4.93-127,11.67-177,20.59-1.81.32-7.3,1.87-8.93,3.87C148.28,899.88,92.39,945.53,56.15,951.24A102.57,102.57,0,0,1,43.62,952.37ZM164.4,836.57c-21,3.38-67.74,18.47-95.78,31.08-39.86,17.74-55,38.66-52.11,53.73,2.1,10.61,13.16,15.28,26.14,15.07a65,65,0,0,0,13.86-2.35c25.44-7.79,67-39.49,114.35-91.92,1.13-1.32,2-3,1.08-4.46C171.23,836.49,167.33,836.12,164.4,836.57ZM463.51,319.88a279.93,279.93,0,0,0-33.89,2.79,4,4,0,0,0-3.28,3.08c-9.71,38.78-18.4,76.76-30.34,115.87-1.53,5.16-1.19,6.76-.24,7.79a3.9,3.9,0,0,0,2.88,1.2,4.75,4.75,0,0,0,.95-.12c9.15-2.52,18.73-5.63,28.54-9.25,57-21.24,97.16-51.9,102.7-78.17,2.64-12.48-1.64-22.49-8.47-29.34C512.72,324.15,493.07,319.36,463.51,319.88Z"/><path class="cls-1" d="M484.45,610.92a26.19,26.19,0,0,1-19.94-10.54c-14.61-19.44,2.15-52,19.29-67.08,10.47-9.1,23.26-14.48,34.24-14.32a27.69,27.69,0,0,1,7.89,1.18,29.73,29.73,0,0,1,3.24,1.36c2.4,1.08,2.54-.4,3.52-2.2,1.46-2.4,3.56-5.17,6.81-5.73,1.78-.33,6.22-.33,8.8,1.88,2.94,2.39,5.24,6,3.39,9.81s-4.18,7-7.87,18-3.05,29.72-1.13,35.4c1.22,3.68,2.85,2,5.13.94,1.51-.7,2.65-2.12,5.49-1.41s6.76,4.09,7.67,6.44.34,4.9-.63,7.22a15.61,15.61,0,0,1-14.22,9.72c-7.26-.12-13.91-4.09-18.25-11l-2.42-5.82-4,5.19c-1.58,2-3.73,4.3-5.4,6.13-8.78,9.46-19.85,15-30.45,14.88Zm33-73.13c-1.81.12-11.11,1-21.14,9.76-13.43,11.83-22.36,33.88-16.64,41.39a7.07,7.07,0,0,0,5.78,3c5.59.1,13.64-4.08,18.77-9.62,7.85-8.46,14-18.88,19.49-36.06l.66-2.11-1.63-1.79a9.36,9.36,0,0,1-1.54-2.35l-1.12-2.39Z"/><path class="cls-1" d="M609.16,603.42c-4.61-2-9.09-5.46-6.91-11.94,3.09-9.3,5.56-15.48,7.52-28.64s3.29-31.36-.47-35.88c-.19-.16-.43-.48-2-.37-5.11.35-9.18-3.43-11.06-9.06s4.56-9.46,9.8-9.83c9.29-.66,14.12,2.93,16.87,6.68,2.64,3.57,4,8.08,4.74,12.47.68,3.5,2.62.94,3.64,0,15.13-13.54,31.34-13.35,42.46-2.16,3.71,3.74,2.47,8.69,0,13.24s-9.71,3.57-13.45,0c-6.38-6.06-13.5-.62-19.94,5-3.39,2.93-9,10.09-12.69,20.19-3.08,8.56-3.73,19.41-4.61,24s-.52,6.63-1.4,11.5S613,605,609.16,603.42Z"/><path class="cls-1" d="M730.07,596.08A28,28,0,0,1,717.73,593c-10.63-5.45-17.41-17.51-16.92-31.67.8-22.56,15.45-42.35,34.24-52.14,7.77-4.08,14.51-6,22.65-5.82,4.08.14,10.79,1.55,11.11,8.5a21.85,21.85,0,0,1,7.91,6c7.91,9.53,6.88,23.56,6.37,27.65-1.93,15.35-14,30.85-26.27,40.63C748.77,592.55,738.21,596.2,730.07,596.08Zm22.38-70.89c-15.5,3.89-30.63,19.36-31.4,35.63-.33,6.57,1.38,11.29,5.07,13.57,5.47,3.47,15.82.7,22.11-4.27,11.4-9.07,14.45-16.86,16.11-24.49s-.29-13.31-2.19-15.56a3.33,3.33,0,0,0-2.69-1.22A9.47,9.47,0,0,1,752.45,525.19Z"/><path class="cls-1" d="M808.57,603.66c-4.27-.24-9.88-4.77-10.64-9.18-1-5.12,3.37-8,8.86-9.46,8.61-2.26,18.74-7.79,29-18.73,1.38-1.48,2.76-2.94,4-4.35a93,93,0,0,1-2.1-23.77c1.15-36.83,9.43-58.15,25.19-65,7.73-3.33,15-2.67,20.67,2.09,8.47,7.07,11.25,22.79,6.32,40.07-5,17.84-12.43,31-28.77,50.42,1.6,3.27,3.2,7.28,7.68,8.78s14.16.82,25.14-16.11c.52-.82.93-3.7,2.22-5.42,3.18-4.29,9.83-2.25,13,1.93,6.39,8.75,2.09,10.54-.74,14.91a49.18,49.18,0,0,1-33.19,22c-8,1.42-15.13.15-20-3.52a33.46,33.46,0,0,1-7.15-7.42c-12.6,13-24.88,20.48-37.3,22.64A8.9,8.9,0,0,1,808.57,603.66Zm63-113.17c-4.46-1.46-13.18,15.73-14.84,44.88-.27,4,1,5.92,3,3.33A70.11,70.11,0,0,0,872.85,512C875.74,499.53,875.74,491.83,871.61,490.49Z"/><path class="cls-1" d="M990.07,581.52a32.8,32.8,0,0,1-9.06-1.4c-12.79-3.76-22.19-14.93-24.58-29.12a29,29,0,0,1-14.51-17.32,9.5,9.5,0,0,1,17.34-7.51c4.11-10.33,12-19.81,22.93-27.39,16.93-10.31,34.09-10.82,43.24-1.56,3.83,3.88,12.21,15.36-1.51,35-8.79,12.65-28.12,21.2-46,23.08a14.89,14.89,0,0,0,8.48,6.61c8.64,2.59,19.9-2.81,30.73-14.74,3.48-3.89,9.13-3.75,13.36-.7,5.13,3.68,4.84,9.32,1.35,13.24C1018.9,574.08,1003.71,581.76,990.07,581.52Zm2.43-66.85c-8.64,6-14.54,13.68-16.78,21.73,12.12,0,26-5.39,31.83-12.9,5.39-7,6.7-11.74,2.94-13.81S999.07,510.66,992.5,514.67Z"/><path class="cls-1" d="M1107.64,460.91a8.33,8.33,0,0,1-2.48-.37c-5-1.41-6.72-5.49-6.72-10.75a51.82,51.82,0,0,1,1-8c1.19-5.07,5.9-10.75,11.62-8.22,6.61,3,9,7.49,7.75,12.56l-.58,2.56c-.41,1.83-.76,3.17-1.37,5.42A9.44,9.44,0,0,1,1107.64,460.91Z"/><path class="cls-1" d="M1092.7,575a17,17,0,0,1-11.28-4.42c-15.86-12.91-6-40.47,3.12-64.78,2.23-5.78,4.16-17.49,4.74-20.26,1.13-5.1,7.51-7,12.48-5.15,5.71,2.12,10.49,9.09,9.35,14.21-.89,4-4.74,8.19-7.31,15.14-10.22,27.16-14.67,45-10.42,46.38,3.84,1.22,10.82-4.69,14.31-8,3.8-3.64,8.75-.94,11.33,3.36,2.66,4.46,2.31,9.62-1.77,13C1110,570.35,1100.9,575.14,1092.7,575Z"/><path class="cls-1" d="M1113.67,662.34a9.94,9.94,0,0,1-5.13-1.57c-2.84-1.93-4.66-7-4.36-10.56a24.47,24.47,0,0,1,3.29-9.39,39,39,0,0,0,2-3.89,9.51,9.51,0,0,1,8.88-5.79,10.67,10.67,0,0,1,3.58.78l2.1.92,2-1.27c20.6-15.54,44.65-38.35,55.16-50.56,17.08-19.91,16.15-29.37,15.49-31.79-.86-3.14-4.2-5.68-9.71-7.51-23-7.51-32.44-19.44-29-36.44,3-14.24,16.1-29.34,37.24-35.93,4.93-1.53,13.43,6.36,14.55,10.4.66,2.44,1.56,7.75-7.84,11.27-13.45,5-24,11.17-25.36,18.07-1.29,6.29,3.14,10.31,16.27,14.6,14.88,4.91,20.26,13.8,22.13,20.43,3.74,13.33-2.8,29.9-19.35,49.22-15.53,18.1-55.61,56.41-77.33,67.91A9.74,9.74,0,0,1,1113.67,662.34Z"/><path class="cls-1" d="M1280.94,563.59c-.72,0-1.37-.05-2-.1-19.83-1.92-27-11.8-29.31-18.71-2.73-8.26-1.61-19.5,1.2-28.21a27.43,27.43,0,0,1-2.1-9.84,9.44,9.44,0,0,1,9.12-9.81,9.85,9.85,0,0,1,3.05.37,57.63,57.63,0,0,1,7.7-8.58c10.73-9.91,36.7-22.87,50.08-12,5.5,4.48,11,15.56.54,30.93C1310.79,520,1288,531,1271.15,530.11c-4.2-.23-4.77,2.56-4.77,4.14,0,6.36,5.58,12.25,14.33,12.25,11.65,0,26.8-9.53,30.83-16.15,2.18-3.66,4.06-7.93,8.81-8.41,5.08-.56,11.48,4.72,12,9.91s-4.08,7.51-9.21,12.73C1313.7,554.1,1294.51,563.87,1280.94,563.59Zm-6.79-52.23c9.89.4,23.95-6.6,28.43-12.16,3.08-3.78,3.81-6.64,1.49-8.15-3.8-2.3-14.69,3.95-21.87,10.59A55.42,55.42,0,0,0,1274.15,511.36Z"/></g></g></svg>